<svg xmlns="http://www.w3.org/2000/svg" xmlns:xlink="http://www.w3.org/1999/xlink" viewBox="0 0 1920 1080"><defs><style>.cls-1,.cls-3{fill:#25283d;}.cls-1{opacity:0.38;}.cls-2{fill:#999;opacity:0.31;}.cls-4{font-size:31.91px;fill:#fff;font-family:MyriadPro-Regular, Myriad Pro;letter-spacing:0.03em;}.cls-5{letter-spacing:0.1em;}.cls-6{letter-spacing:0.06em;}.cls-7{letter-spacing:0.03em;}.cls-8{letter-spacing:0.1em;}.cls-9{fill:none;}</style></defs><g id="Layer_2" data-name="Layer 2"><g id="Layer_1-2" data-name="Layer 1"><path class="cls-1" d="M149,514.7c0,165-33.43,322.1-93.89,465q-17.83,42.18-38.77,82.65-4.56,8.85-9.29,17.62H0V0H32.74C107.27,155.86,149,330.41,149,514.7Z"/><path class="cls-2" d="M405,180.56c0,165-33.43,322.1-93.89,465A1197.33,1197.33,0,0,1,16.34,1062.38Q8.24,1069.8,0,1077.06V0H391.44A1203.62,1203.62,0,0,1,405,180.56Z"/><path class="cls-3" d="M285.68,89.47l-6.45,6.44a33.19,33.19,0,0,1-8.49,32.32l-.54.52a33.14,33.14,0,1,1,7-38.35l6.05-6.05a41.36,41.36,0,1,0,2.46,5.12Z"/><rect class="cls-3" x="237.3" y="74.57" width="56.65" height="22.69" rx="10.97" transform="translate(17.05 212.98) rotate(-45)"/><path class="cls-3" d="M1150.42,509.78v.54h1.5v4.37h.64v-4.37h1.5v-.54Z"/><path class="cls-3" d="M1159.19,509.78h-.81l-.88,2.38c-.22.62-.39,1.16-.51,1.65h0c-.12-.51-.29-1-.49-1.65l-.84-2.38h-.81l-.34,4.91h.6l.13-2.1c0-.74.09-1.56.1-2.17h0c.14.58.34,1.21.57,1.91l.8,2.33h.48l.87-2.38c.24-.68.45-1.29.62-1.86h0c0,.61,0,1.43.07,2.12l.12,2.15h.62Z"/><rect class="cls-3" x="884.81" y="618.87" width="198.86" height="66" rx="29.56"/><text class="cls-4" transform="translate(907.82 661.23)">T<tspan class="cls-5" x="16.94" y="0">ake</tspan><tspan class="cls-6" x="72.66" y="0"> </tspan><tspan class="cls-7" x="81.24" y="0">T</tspan><tspan class="cls-8" x="97.96" y="0">our</tspan></text><image width="373" height="85" transform="translate(798 501)" xlink:href="../1x/Asset%201.png"/><rect class="cls-9" width="1920" height="1077"/></g></g></svg>