<svg xmlns="http://www.w3.org/2000/svg" viewBox="0 0 372.5 86.63"><defs><style>.cls-1{fill:#25283d;}</style></defs><g id="Layer_2" data-name="Layer 2"><g id="Layer_1-2" data-name="Layer 1"><path class="cls-1" d="M129,26.31v19h22.81v1.23H129V66.83h26.5v1.22H127.77v-43h26.86v1.23Z"/><path class="cls-1" d="M242.49,68.05v-43h1.23v43Z"/><path class="cls-1" d="M196.44,68.05v-8.9h1.23v8.9Z"/><path class="cls-1" d="M287.31,26.31V68.05h-1.23V26.31H271.32V25.08h30.74v1.23Z"/><path class="cls-1" d="M358.77,68.05H319.61l19.58-44.92Zm-37.15-1.31h35.15L339.19,26.41Z"/><polygon class="cls-1" points="212.51 25.45 211.08 25.45 197.06 57.62 183.03 25.45 181.6 25.45 197.06 60.91 212.51 25.45"/><path class="cls-1" d="M364.93,15.86h-1.5v-.54h3.64v.54h-1.5v4.37h-.64Z"/><path class="cls-1" d="M371.76,18.07c0-.68-.08-1.5-.07-2.12h0c-.16.58-.37,1.19-.62,1.87l-.86,2.38h-.48l-.8-2.34c-.23-.69-.43-1.32-.57-1.91h0c0,.62-.05,1.44-.1,2.18l-.13,2.1h-.6l.34-4.91h.81l.84,2.38c.2.6.37,1.14.49,1.65h0c.13-.5.3-1,.52-1.65l.88-2.38h.81l.3,4.91h-.62Z"/><path d="M74.68,29.91A36.66,36.66,0,1,1,56,11.63l3.56-3.56A41.38,41.38,0,1,0,78.21,26.38Z"/><path class="cls-1" d="M82.27,3.83a13.07,13.07,0,0,0-18.49,0L59.54,8.07,56,11.63,41.1,26.51A13.07,13.07,0,0,0,59.59,45L74.68,29.91l3.53-3.53,4.06-4.06a13.07,13.07,0,0,0,0-18.49ZM78.93,19l-3.19,3.2-3.42,3.41L56.26,41.66A8.35,8.35,0,0,1,44.44,29.85l16-15.95,3.43-3.42,3.3-3.31A8.35,8.35,0,1,1,78.93,19Z"/></g></g></svg>