<svg xmlns="http://www.w3.org/2000/svg" viewBox="0 0 1722.5 2246.63"><defs><style>.cls-1{fill:#fff;}.cls-2{fill:#25283d;}.cls-3{fill:#92949e;}.cls-4{fill:#8b85c1;}</style></defs><g id="Layer_2" data-name="Layer 2"><g id="Layer_1-2" data-name="Layer 1"><path class="cls-1" d="M129,1646.31v19h22.81v1.23H129v20.29h26.5v1.22H127.77v-43h26.86v1.23Z"/><path class="cls-1" d="M242.49,1688.05v-43h1.23v43Z"/><path class="cls-1" d="M196.44,1688.05v-8.9h1.23v8.9Z"/><path class="cls-1" d="M287.31,1646.31v41.74h-1.23v-41.74H271.32v-1.23h30.74v1.23Z"/><path class="cls-1" d="M358.77,1688.05H319.61l19.58-44.92Zm-37.15-1.31h35.15l-17.58-40.33Z"/><polygon class="cls-1" points="212.51 1645.45 211.08 1645.45 197.06 1677.62 183.03 1645.45 181.6 1645.45 197.06 1680.91 212.51 1645.45"/><path class="cls-1" d="M79.69,1650l-6.45,6.45a33.16,33.16,0,0,1-8.49,32.31l-.55.53a33.14,33.14,0,1,1,7-38.35l6-6a41.3,41.3,0,1,0,2.46,5.11Z"/><rect class="cls-1" x="31.3" y="1635.1" width="56.65" height="22.69" rx="10.97" transform="translate(-1146.75 524.4) rotate(-45)"/><path class="cls-1" d="M364.93,1635.86h-1.5v-.54h3.64v.54h-1.5v4.37h-.64Z"/><path class="cls-1" d="M371.76,1638.07c0-.68-.08-1.5-.07-2.12h0c-.16.58-.37,1.19-.62,1.87l-.86,2.38h-.48l-.8-2.34c-.23-.69-.43-1.32-.57-1.91h0c0,.62-.05,1.44-.1,2.18l-.13,2.1h-.6l.34-4.91h.81l.84,2.38c.2.6.37,1.14.49,1.65h0c.13-.5.3-1,.52-1.65l.88-2.38h.81l.3,4.91h-.62Z"/><path class="cls-2" d="M1479,1646.31v19h22.81v1.23H1479v20.29h26.5v1.22h-27.73v-43h26.86v1.23Z"/><path class="cls-2" d="M1592.49,1688.05v-43h1.23v43Z"/><path class="cls-2" d="M1546.44,1688.05v-8.9h1.23v8.9Z"/><path class="cls-2" d="M1637.31,1646.31v41.74h-1.23v-41.74h-14.76v-1.23h30.74v1.23Z"/><path class="cls-2" d="M1708.77,1688.05h-39.16l19.58-44.92Zm-37.15-1.31h35.15l-17.58-40.33Z"/><polygon class="cls-2" points="1562.51 1645.45 1561.08 1645.45 1547.06 1677.62 1533.03 1645.45 1531.6 1645.45 1547.06 1680.91 1562.51 1645.45"/><path class="cls-2" d="M1429.69,1650l-6.45,6.45a33.16,33.16,0,0,1-8.49,32.31l-.55.53a33.14,33.14,0,1,1,7-38.35l6-6a41.3,41.3,0,1,0,2.46,5.11Z"/><rect class="cls-2" x="1381.3" y="1635.1" width="56.65" height="22.69" rx="10.97" transform="translate(-751.34 1478.99) rotate(-45)"/><path class="cls-2" d="M1714.93,1635.86h-1.5v-.54h3.64v.54h-1.5v4.37h-.64Z"/><path class="cls-2" d="M1721.76,1638.07c0-.68-.08-1.5-.07-2.12h0c-.16.58-.37,1.19-.62,1.87l-.86,2.38h-.48l-.8-2.34c-.23-.69-.43-1.32-.57-1.91h0c0,.62,0,1.44-.1,2.18l-.13,2.1h-.6l.34-4.91h.81l.84,2.38c.2.6.37,1.14.49,1.65h0c.13-.5.3-1,.52-1.65l.88-2.38h.81l.3,4.91h-.62Z"/><path class="cls-1" d="M129,2186.31v19h22.81v1.23H129v20.29h26.5v1.22H127.77v-43h26.86v1.23Z"/><path class="cls-1" d="M242.49,2228.05v-43h1.23v43Z"/><path class="cls-1" d="M196.44,2228.05v-8.9h1.23v8.9Z"/><path class="cls-1" d="M287.31,2186.31v41.74h-1.23v-41.74H271.32v-1.23h30.74v1.23Z"/><path class="cls-1" d="M358.77,2228.05H319.61l19.58-44.92Zm-37.15-1.31h35.15l-17.58-40.33Z"/><polygon class="cls-1" points="212.51 2185.45 211.08 2185.45 197.06 2217.62 183.03 2185.45 181.6 2185.45 197.06 2220.91 212.51 2185.45"/><path class="cls-1" d="M79.69,2190l-6.45,6.45a33.16,33.16,0,0,1-8.49,32.31l-.55.53a33.14,33.14,0,1,1,7-38.35l6-6.05a41.3,41.3,0,1,0,2.46,5.11Z"/><rect class="cls-1" x="31.3" y="2175.1" width="56.65" height="22.69" rx="10.97" transform="translate(-1528.59 682.56) rotate(-45)"/><path class="cls-1" d="M364.93,2175.86h-1.5v-.54h3.64v.54h-1.5v4.37h-.64Z"/><path class="cls-1" d="M371.76,2178.07c0-.68-.08-1.5-.07-2.12h0c-.16.58-.37,1.19-.62,1.87l-.86,2.38h-.48l-.8-2.34c-.23-.69-.43-1.32-.57-1.91h0c0,.62-.05,1.44-.1,2.18l-.13,2.1h-.6l.34-4.91h.81l.84,2.38c.2.6.37,1.14.49,1.65h0c.13-.5.3-1,.52-1.65l.88-2.38h.81l.3,4.91h-.62Z"/><path d="M1479,26.31v19h22.81v1.23H1479V66.83h26.5v1.22h-27.73v-43h26.86v1.23Z"/><path d="M1592.49,68.05v-43h1.23v43Z"/><path d="M1546.44,68.05v-8.9h1.23v8.9Z"/><path d="M1637.31,26.31V68.05h-1.23V26.31h-14.76V25.08h30.74v1.23Z"/><polygon points="1562.51 25.45 1561.08 25.45 1547.06 57.62 1533.03 25.45 1531.6 25.45 1547.06 60.91 1562.51 25.45"/><polygon points="1671.74 68.06 1689.19 28.02 1706.64 68.06 1708.03 68.06 1689.19 24.85 1670.36 68.06 1671.74 68.06"/><path d="M1714.93,15.86h-1.5v-.54h3.64v.54h-1.5v4.37h-.64Z"/><path d="M1721.76,18.07c0-.68-.08-1.5-.07-2.12h0c-.16.58-.37,1.19-.62,1.87l-.86,2.38h-.48l-.8-2.34c-.23-.69-.43-1.32-.57-1.91h0c0,.62,0,1.44-.1,2.18l-.13,2.1h-.6l.34-4.91h.81l.84,2.38c.2.6.37,1.14.49,1.65h0c.13-.5.3-1,.52-1.65l.88-2.38h.81l.3,4.91h-.62Z"/><path d="M1424.68,29.91A36.66,36.66,0,1,1,1406,11.63l3.56-3.56a41.38,41.38,0,1,0,18.67,18.31Z"/><path class="cls-2" d="M1432.27,3.83a13.07,13.07,0,0,0-18.49,0l-4.24,4.24L1406,11.63,1391.1,26.51A13.07,13.07,0,0,0,1409.59,45l15.09-15.09,3.53-3.53,4.06-4.06a13.07,13.07,0,0,0,0-18.49ZM1428.93,19l-3.19,3.2-3.42,3.41-16.06,16.07a8.35,8.35,0,1,1-11.82-11.81l16-15.95,3.43-3.42,3.3-3.31A8.35,8.35,0,1,1,1428.93,19Z"/><path class="cls-1" d="M129,566.31v19h22.81v1.23H129v20.29h26.5v1.22H127.77v-43h26.86v1.23Z"/><path class="cls-1" d="M242.49,608.05v-43h1.23v43Z"/><path class="cls-1" d="M196.44,608.05v-8.9h1.23v8.9Z"/><path class="cls-1" d="M287.31,566.31v41.74h-1.23V566.31H271.32v-1.23h30.74v1.23Z"/><polygon class="cls-1" points="212.51 565.45 211.08 565.45 197.06 597.62 183.03 565.45 181.6 565.45 197.06 600.91 212.51 565.45"/><polygon class="cls-1" points="321.75 608.05 339.19 568.02 356.64 608.05 358.02 608.05 339.19 564.85 320.36 608.05 321.75 608.05"/><path class="cls-1" d="M364.93,555.86h-1.5v-.54h3.64v.54h-1.5v4.37h-.64Z"/><path class="cls-1" d="M371.76,558.07c0-.68-.08-1.5-.07-2.12h0c-.16.58-.37,1.19-.62,1.87l-.86,2.38h-.48l-.8-2.34c-.23-.69-.43-1.32-.57-1.91h0c0,.62-.05,1.44-.1,2.18l-.13,2.1h-.6l.34-4.91h.81l.84,2.38c.2.6.37,1.14.49,1.65h0c.13-.5.3-1,.52-1.65l.88-2.38h.81l.3,4.91h-.62Z"/><path class="cls-1" d="M74.68,569.91A36.66,36.66,0,1,1,56,551.63l3.56-3.56a41.38,41.38,0,1,0,18.67,18.31Z"/><path class="cls-3" d="M82.27,543.83a13.07,13.07,0,0,0-18.49,0l-4.24,4.24L56,551.63,41.1,566.51A13.07,13.07,0,0,0,59.59,585l15.09-15.09,3.53-3.53,4.06-4.06a13.07,13.07,0,0,0,0-18.49ZM78.93,559l-3.19,3.2-3.42,3.41L56.26,581.66a8.35,8.35,0,1,1-11.82-11.81l16-16,3.43-3.42,3.3-3.31A8.35,8.35,0,1,1,78.93,559Z"/><path class="cls-1" d="M129,1106.31v19h22.81v1.23H129v20.29h26.5v1.22H127.77v-43h26.86v1.23Z"/><path class="cls-1" d="M242.49,1148.05v-43h1.23v43Z"/><path class="cls-1" d="M196.44,1148.05v-8.9h1.23v8.9Z"/><path class="cls-1" d="M287.31,1106.31v41.74h-1.23v-41.74H271.32v-1.23h30.74v1.23Z"/><path class="cls-1" d="M358.77,1148.05H319.61l19.58-44.92Zm-37.15-1.31h35.15l-17.58-40.33Z"/><polygon class="cls-1" points="212.51 1105.45 211.08 1105.45 197.06 1137.62 183.03 1105.45 181.6 1105.45 197.06 1140.91 212.51 1105.45"/><path class="cls-1" d="M364.93,1095.86h-1.5v-.54h3.64v.54h-1.5v4.37h-.64Z"/><path class="cls-1" d="M371.76,1098.07c0-.68-.08-1.5-.07-2.12h0c-.16.58-.37,1.19-.62,1.87l-.86,2.38h-.48l-.8-2.34c-.23-.69-.43-1.32-.57-1.91h0c0,.62-.05,1.44-.1,2.18l-.13,2.1h-.6l.34-4.91h.81l.84,2.38c.2.6.37,1.14.49,1.65h0c.13-.5.3-1,.52-1.65l.88-2.38h.81l.3,4.91h-.62Z"/><path class="cls-4" d="M1432.27,543.83a13.07,13.07,0,0,0-18.49,0l-4.24,4.24-3.56,3.56-14.88,14.88A13.07,13.07,0,0,0,1409.59,585l15.09-15.09,3.53-3.53,4.06-4.06a13.07,13.07,0,0,0,0-18.49ZM1428.93,559l-3.19,3.2-3.42,3.41-16.06,16.07a8.35,8.35,0,1,1-11.82-11.81l16-16,3.43-3.42,3.3-3.31A8.35,8.35,0,1,1,1428.93,559Z"/><path class="cls-1" d="M1479,2186.31v19h22.81v1.23H1479v20.29h26.5v1.22h-27.73v-43h26.86v1.23Z"/><path class="cls-1" d="M1592.49,2228.05v-43h1.23v43Z"/><path class="cls-1" d="M1546.44,2228.05v-8.9h1.23v8.9Z"/><path class="cls-1" d="M1637.31,2186.31v41.74h-1.23v-41.74h-14.76v-1.23h30.74v1.23Z"/><path class="cls-1" d="M1708.77,2228.05h-39.16l19.58-44.92Zm-37.15-1.31h35.15l-17.58-40.33Z"/><polygon class="cls-1" points="1562.51 2185.45 1561.08 2185.45 1547.06 2217.62 1533.03 2185.45 1531.6 2185.45 1547.06 2220.91 1562.51 2185.45"/><path class="cls-1" d="M1714.93,2175.86h-1.5v-.54h3.64v.54h-1.5v4.37h-.64Z"/><path class="cls-1" d="M1721.76,2178.07c0-.68-.08-1.5-.07-2.12h0c-.16.58-.37,1.19-.62,1.87l-.86,2.38h-.48l-.8-2.34c-.23-.69-.43-1.32-.57-1.91h0c0,.62,0,1.44-.1,2.18l-.13,2.1h-.6l.34-4.91h.81l.84,2.38c.2.6.37,1.14.49,1.65h0c.13-.5.3-1,.52-1.65l.88-2.38h.81l.3,4.91h-.62Z"/><path class="cls-1" d="M1424.68,2189.91a36.66,36.66,0,1,1-18.7-18.28l3.56-3.56a41.38,41.38,0,1,0,18.67,18.31Z"/><path class="cls-4" d="M1432.27,2163.83a13.07,13.07,0,0,0-18.49,0l-4.24,4.24-3.56,3.56-14.88,14.88a13.07,13.07,0,0,0,18.49,18.49l15.09-15.09,3.53-3.53,4.06-4.06a13.07,13.07,0,0,0,0-18.49Zm-3.34,15.15-3.19,3.2-3.42,3.41-16.06,16.07a8.35,8.35,0,1,1-11.82-11.81l16-15.95,3.43-3.42,3.3-3.31a8.35,8.35,0,1,1,11.81,11.81Z"/></g></g></svg>