<svg xmlns="http://www.w3.org/2000/svg" viewBox="0 0 358.77 83.69"><defs><style>.cls-1{fill:#fff;}</style></defs><g id="Layer_2" data-name="Layer 2"><g id="Layer_1-2" data-name="Layer 1"><path class="cls-1" d="M129,23.37v19h22.81V43.6H129V63.88h26.5v1.23H127.77v-43h26.86v1.23Z"/><path class="cls-1" d="M242.49,65.11v-43h1.23v43Z"/><path class="cls-1" d="M196.44,65.11v-8.9h1.23v8.9Z"/><path class="cls-1" d="M287.31,23.37V65.11h-1.23V23.37H271.32V22.14h30.74v1.23Z"/><path class="cls-1" d="M358.77,65.11H319.61l19.58-44.92ZM321.62,63.8h35.15L339.19,23.47Z"/><polygon class="cls-1" points="212.51 22.5 211.08 22.5 197.06 54.68 183.03 22.5 181.6 22.5 197.06 57.96 212.51 22.5"/><path class="cls-1" d="M79.69,27.06l-6.45,6.45a33.16,33.16,0,0,1-8.49,32.31l-.55.52a33.15,33.15,0,1,1,7-38.34l6-6.05a41.3,41.3,0,1,0,2.46,5.11Z"/><rect class="cls-1" x="31.3" y="12.16" width="56.65" height="22.69" rx="10.97" transform="translate(0.84 49.05) rotate(-45)"/></g></g></svg>