<svg xmlns="http://www.w3.org/2000/svg" width="269.423" height="66.294" viewBox="0 0 269.423 66.294">
  <g id="Logo_with_text" data-name="Logo with text" transform="translate(-17898.001 417.602)">
    <path id="Path_156" data-name="Path 156" d="M1478.694,1646v14.268h17.129v.924h-17.129v15.237h19.9v.916H1477.77V1645.05h20.171v.924Z" transform="translate(16516.182 -2042.637)" fill="#25283d"/>
    <path id="Path_159" data-name="Path 159" d="M1592.49,1677.341V1645.05h.924v32.291Z" transform="translate(16487.613 -2042.637)" fill="#25283d"/>
    <path id="Path_157" data-name="Path 157" d="M1546.44,1685.834v-6.684h.924v6.684Z" transform="translate(16499.082 -2051.129)" fill="#25283d"/>
    <path id="Path_160" data-name="Path 160" d="M1633.328,1646v31.345h-.924V1646H1621.32v-.924H1644.4V1646Z" transform="translate(16480.434 -2042.644)" fill="#25283d"/>
    <path id="Path_161" data-name="Path 161" d="M1699.018,1676.863H1669.61l14.7-33.733Zm-27.9-.984h26.4l-13.2-30.286Z" transform="translate(16468.406 -2042.159)" fill="#25283d"/>
    <path id="Path_158" data-name="Path 158" d="M1554.812,1645.45h-1.074l-10.528,24.158-10.536-24.158H1531.6l11.61,26.629Z" transform="translate(16502.777 -2042.736)" fill="#25283d"/>
    <path id="Path_155" data-name="Path 155" d="M1409.843,1643.54l-4.844,4.844a24.9,24.9,0,0,1-6.376,24.264l-.413.4a24.887,24.887,0,1,1,5.257-28.8l4.506-4.506a31.016,31.016,0,1,0,1.847,3.837Z" transform="translate(16548.004 -2037.409)" fill="#25283d"/>
    <rect id="Rectangle_41" data-name="Rectangle 41" width="42.542" height="17.039" rx="8.52" transform="translate(17921.723 -387.52) rotate(-45)" fill="#25283d"/>
  </g>
</svg>
